<?xml version="1.0" encoding="UTF-8" standalone="no"?>
<!DOCTYPE svg PUBLIC "-//W3C//DTD SVG 1.1//EN"
 "http://www.w3.org/Graphics/SVG/1.1/DTD/svg11.dtd">
<!-- Generated by graphviz version 2.47.3 (20210619.1520)
 -->
<!-- Title: dependencies Pages: 1 -->
<svg width="876pt" height="247pt"
 viewBox="0.00 0.00 876.00 246.80" xmlns="http://www.w3.org/2000/svg" xmlns:xlink="http://www.w3.org/1999/xlink">
<g id="graph0" class="graph" transform="scale(1 1) rotate(0) translate(4 242.8)">
<title>dependencies</title>
<polygon fill="white" stroke="transparent" points="-4,4 -4,-242.8 872,-242.8 872,4 -4,4"/>
<text text-anchor="middle" x="434" y="-8.2" font-family="sans-serif" font-size="14.00">dependencies</text>
<g id="clust1" class="cluster">
<title>cluster_PetTypesModule</title>
<polygon fill="none" stroke="black" stroke-dasharray="1,5" points="8,-32.8 8,-230.8 860,-230.8 860,-32.8 8,-32.8"/>
</g>
<g id="clust9" class="cluster">
<title>cluster_PetTypesModule_providers</title>
<polygon fill="none" stroke="black" points="692,-40.8 692,-92.8 852,-92.8 852,-40.8 692,-40.8"/>
</g>
<g id="clust6" class="cluster">
<title>cluster_PetTypesModule_imports</title>
<polygon fill="none" stroke="black" points="516,-40.8 516,-92.8 684,-92.8 684,-40.8 516,-40.8"/>
</g>
<g id="clust7" class="cluster">
<title>cluster_PetTypesModule_exports</title>
<polygon fill="none" stroke="black" points="344,-170.8 344,-222.8 508,-222.8 508,-170.8 344,-170.8"/>
</g>
<g id="clust2" class="cluster">
<title>cluster_PetTypesModule_declarations</title>
<polygon fill="none" stroke="black" points="16,-40.8 16,-92.8 508,-92.8 508,-40.8 16,-40.8"/>
</g>
<!-- PettypeAddComponent -->
<g id="node1" class="node">
<title>PettypeAddComponent</title>
<polygon fill="#ffffb3" stroke="black" points="499.93,-84.8 352.07,-84.8 352.07,-48.8 499.93,-48.8 499.93,-84.8"/>
<text text-anchor="middle" x="426" y="-62.6" font-family="Times,serif" font-size="14.00">PettypeAddComponent</text>
</g>
<!-- PetTypesModule -->
<g id="node4" class="node">
<title>PetTypesModule</title>
<polygon fill="#8dd3c7" stroke="black" points="481.65,-149.8 478.65,-153.8 457.65,-153.8 454.65,-149.8 370.35,-149.8 370.35,-113.8 481.65,-113.8 481.65,-149.8"/>
<text text-anchor="middle" x="426" y="-127.6" font-family="Times,serif" font-size="14.00">PetTypesModule</text>
</g>
<!-- PettypeAddComponent&#45;&gt;PetTypesModule -->
<g id="edge1" class="edge">
<title>PettypeAddComponent&#45;&gt;PetTypesModule</title>
<path fill="none" stroke="black" d="M426,-84.91C426,-84.91 426,-103.79 426,-103.79"/>
<polygon fill="black" stroke="black" points="422.5,-103.79 426,-113.79 429.5,-103.79 422.5,-103.79"/>
</g>
<!-- PettypeEditComponent -->
<g id="node2" class="node">
<title>PettypeEditComponent</title>
<polygon fill="#ffffb3" stroke="black" points="334.16,-84.8 187.84,-84.8 187.84,-48.8 334.16,-48.8 334.16,-84.8"/>
<text text-anchor="middle" x="261" y="-62.6" font-family="Times,serif" font-size="14.00">PettypeEditComponent</text>
</g>
<!-- PettypeEditComponent&#45;&gt;PetTypesModule -->
<g id="edge2" class="edge">
<title>PettypeEditComponent&#45;&gt;PetTypesModule</title>
<path fill="none" stroke="black" d="M261,-84.82C261,-102.17 261,-125.8 261,-125.8 261,-125.8 360.14,-125.8 360.14,-125.8"/>
<polygon fill="black" stroke="black" points="360.14,-129.3 370.14,-125.8 360.14,-122.3 360.14,-129.3"/>
</g>
<!-- PettypeListComponent -->
<g id="node3" class="node">
<title>PettypeListComponent</title>
<polygon fill="#ffffb3" stroke="black" points="169.6,-84.8 24.4,-84.8 24.4,-48.8 169.6,-48.8 169.6,-84.8"/>
<text text-anchor="middle" x="97" y="-62.6" font-family="Times,serif" font-size="14.00">PettypeListComponent</text>
</g>
<!-- PettypeListComponent&#45;&gt;PetTypesModule -->
<g id="edge3" class="edge">
<title>PettypeListComponent&#45;&gt;PetTypesModule</title>
<path fill="none" stroke="black" d="M97,-85.08C97,-106.12 97,-137.8 97,-137.8 97,-137.8 360.19,-137.8 360.19,-137.8"/>
<polygon fill="black" stroke="black" points="360.19,-141.3 370.19,-137.8 360.19,-134.3 360.19,-141.3"/>
</g>
<!-- PettypeListComponent  -->
<g id="node6" class="node">
<title>PettypeListComponent </title>
<polygon fill="#fb8072" stroke="black" points="500.1,-214.8 351.9,-214.8 351.9,-178.8 500.1,-178.8 500.1,-214.8"/>
<text text-anchor="middle" x="426" y="-192.6" font-family="Times,serif" font-size="14.00">PettypeListComponent </text>
</g>
<!-- PetTypesModule&#45;&gt;PettypeListComponent  -->
<g id="edge5" class="edge">
<title>PetTypesModule&#45;&gt;PettypeListComponent </title>
<path fill="none" stroke="black" stroke-dasharray="5,2" d="M426,-149.91C426,-149.91 426,-168.79 426,-168.79"/>
<polygon fill="black" stroke="black" points="422.5,-168.79 426,-178.79 429.5,-168.79 422.5,-168.79"/>
</g>
<!-- PettypesRoutingModule -->
<g id="node5" class="node">
<title>PettypesRoutingModule</title>
<polygon fill="#8dd3c7" stroke="black" points="676.11,-84.8 673.11,-88.8 652.11,-88.8 649.11,-84.8 523.89,-84.8 523.89,-48.8 676.11,-48.8 676.11,-84.8"/>
<text text-anchor="middle" x="600" y="-62.6" font-family="Times,serif" font-size="14.00">PettypesRoutingModule</text>
</g>
<!-- PettypesRoutingModule&#45;&gt;PetTypesModule -->
<g id="edge4" class="edge">
<title>PettypesRoutingModule&#45;&gt;PetTypesModule</title>
<path fill="none" stroke="black" d="M600,-84.82C600,-102.17 600,-125.8 600,-125.8 600,-125.8 492.01,-125.8 492.01,-125.8"/>
<polygon fill="black" stroke="black" points="492.01,-122.3 482.01,-125.8 492.01,-129.3 492.01,-122.3"/>
</g>
<!-- PetTypeService -->
<g id="node7" class="node">
<title>PetTypeService</title>
<ellipse fill="#fdb462" stroke="black" cx="772" cy="-66.8" rx="72.35" ry="18"/>
<text text-anchor="middle" x="772" y="-62.6" font-family="Times,serif" font-size="14.00">PetTypeService</text>
</g>
<!-- PetTypeService&#45;&gt;PetTypesModule -->
<g id="edge6" class="edge">
<title>PetTypeService&#45;&gt;PetTypesModule</title>
<path fill="none" stroke="black" d="M772,-85.08C772,-106.12 772,-137.8 772,-137.8 772,-137.8 491.98,-137.8 491.98,-137.8"/>
<polygon fill="black" stroke="black" points="491.98,-134.3 481.98,-137.8 491.98,-141.3 491.98,-134.3"/>
</g>
</g>
</svg>
