<?xml version="1.0" encoding="UTF-8" standalone="no"?>
<!DOCTYPE svg PUBLIC "-//W3C//DTD SVG 1.1//EN"
 "http://www.w3.org/Graphics/SVG/1.1/DTD/svg11.dtd">
<!-- Generated by graphviz version 2.47.3 (20210619.1520)
 -->
<!-- Title: dependencies Pages: 1 -->
<svg width="558pt" height="174pt"
 viewBox="0.00 0.00 558.00 173.80" xmlns="http://www.w3.org/2000/svg" xmlns:xlink="http://www.w3.org/1999/xlink">
<g id="graph0" class="graph" transform="scale(1 1) rotate(0) translate(4 169.8)">
<title>dependencies</title>
<polygon fill="white" stroke="transparent" points="-4,4 -4,-169.8 554,-169.8 554,4 -4,4"/>
<text text-anchor="middle" x="275" y="-8.2" font-family="sans-serif" font-size="14.00">dependencies</text>
<g id="clust1" class="cluster">
<title>cluster_TestingModule</title>
<polygon fill="none" stroke="black" stroke-dasharray="1,5" points="8,-32.8 8,-157.8 542,-157.8 542,-32.8 8,-32.8"/>
</g>
<g id="clust2" class="cluster">
<title>cluster_TestingModule_declarations</title>
<polygon fill="none" stroke="black" points="16,-40.8 16,-92.8 534,-92.8 534,-40.8 16,-40.8"/>
</g>
<!-- DummyComponent -->
<g id="node1" class="node">
<title>DummyComponent</title>
<polygon fill="#ffffb3" stroke="black" points="525.72,-84.8 398.28,-84.8 398.28,-48.8 525.72,-48.8 525.72,-84.8"/>
<text text-anchor="middle" x="462" y="-62.6" font-family="Times,serif" font-size="14.00">DummyComponent</text>
</g>
<!-- TestingModule -->
<g id="node4" class="node">
<title>TestingModule</title>
<polygon fill="#8dd3c7" stroke="black" points="351.54,-149.8 348.54,-153.8 327.54,-153.8 324.54,-149.8 250.46,-149.8 250.46,-113.8 351.54,-113.8 351.54,-149.8"/>
<text text-anchor="middle" x="301" y="-127.6" font-family="Times,serif" font-size="14.00">TestingModule</text>
</g>
<!-- DummyComponent&#45;&gt;TestingModule -->
<g id="edge1" class="edge">
<title>DummyComponent&#45;&gt;TestingModule</title>
<path fill="none" stroke="black" d="M462,-84.91C462,-104.14 462,-131.8 462,-131.8 462,-131.8 361.94,-131.8 361.94,-131.8"/>
<polygon fill="black" stroke="black" points="361.94,-128.3 351.94,-131.8 361.94,-135.3 361.94,-128.3"/>
</g>
<!-- RouterLinkStubDirective -->
<g id="node2" class="node">
<title>RouterLinkStubDirective</title>
<polygon fill="#ffffb3" stroke="black" points="380.3,-84.8 221.7,-84.8 221.7,-48.8 380.3,-48.8 380.3,-84.8"/>
<text text-anchor="middle" x="301" y="-62.6" font-family="Times,serif" font-size="14.00">RouterLinkStubDirective</text>
</g>
<!-- RouterLinkStubDirective&#45;&gt;TestingModule -->
<g id="edge2" class="edge">
<title>RouterLinkStubDirective&#45;&gt;TestingModule</title>
<path fill="none" stroke="black" d="M301,-84.91C301,-84.91 301,-103.79 301,-103.79"/>
<polygon fill="black" stroke="black" points="297.5,-103.79 301,-113.79 304.5,-103.79 297.5,-103.79"/>
</g>
<!-- RouterOutletStubComponent -->
<g id="node3" class="node">
<title>RouterOutletStubComponent</title>
<polygon fill="#ffffb3" stroke="black" points="204.1,-84.8 23.9,-84.8 23.9,-48.8 204.1,-48.8 204.1,-84.8"/>
<text text-anchor="middle" x="114" y="-62.6" font-family="Times,serif" font-size="14.00">RouterOutletStubComponent</text>
</g>
<!-- RouterOutletStubComponent&#45;&gt;TestingModule -->
<g id="edge3" class="edge">
<title>RouterOutletStubComponent&#45;&gt;TestingModule</title>
<path fill="none" stroke="black" d="M114,-84.91C114,-104.14 114,-131.8 114,-131.8 114,-131.8 240.4,-131.8 240.4,-131.8"/>
<polygon fill="black" stroke="black" points="240.4,-135.3 250.4,-131.8 240.4,-128.3 240.4,-135.3"/>
</g>
</g>
</svg>
