<?xml version="1.0" encoding="UTF-8" standalone="no"?>
<!DOCTYPE svg PUBLIC "-//W3C//DTD SVG 1.1//EN"
 "http://www.w3.org/Graphics/SVG/1.1/DTD/svg11.dtd">
<!-- Generated by graphviz version 2.47.3 (20210619.1520)
 -->
<!-- Title: dependencies Pages: 1 -->
<svg width="849pt" height="247pt"
 viewBox="0.00 0.00 849.00 246.80" xmlns="http://www.w3.org/2000/svg" xmlns:xlink="http://www.w3.org/1999/xlink">
<g id="graph0" class="graph" transform="scale(1 1) rotate(0) translate(4 242.8)">
<title>dependencies</title>
<polygon fill="white" stroke="transparent" points="-4,4 -4,-242.8 845,-242.8 845,4 -4,4"/>
<text text-anchor="middle" x="420.5" y="-8.2" font-family="sans-serif" font-size="14.00">dependencies</text>
<g id="clust1" class="cluster">
<title>cluster_PetsModule</title>
<polygon fill="none" stroke="black" stroke-dasharray="1,5" points="8,-32.8 8,-230.8 833,-230.8 833,-32.8 8,-32.8"/>
</g>
<g id="clust7" class="cluster">
<title>cluster_PetsModule_exports</title>
<polygon fill="none" stroke="black" points="203,-170.8 203,-222.8 631,-222.8 631,-170.8 203,-170.8"/>
</g>
<g id="clust9" class="cluster">
<title>cluster_PetsModule_providers</title>
<polygon fill="none" stroke="black" points="705,-40.8 705,-92.8 825,-92.8 825,-40.8 705,-40.8"/>
</g>
<g id="clust2" class="cluster">
<title>cluster_PetsModule_declarations</title>
<polygon fill="none" stroke="black" points="278,-40.8 278,-92.8 697,-92.8 697,-40.8 278,-40.8"/>
</g>
<g id="clust6" class="cluster">
<title>cluster_PetsModule_imports</title>
<polygon fill="none" stroke="black" points="16,-40.8 16,-92.8 270,-92.8 270,-40.8 16,-40.8"/>
</g>
<!-- PetAddComponent -->
<g id="node1" class="node">
<title>PetAddComponent</title>
<polygon fill="#ffffb3" stroke="black" points="688.83,-84.8 565.17,-84.8 565.17,-48.8 688.83,-48.8 688.83,-84.8"/>
<text text-anchor="middle" x="627" y="-62.6" font-family="Times,serif" font-size="14.00">PetAddComponent</text>
</g>
<!-- PetsModule -->
<g id="node4" class="node">
<title>PetsModule</title>
<polygon fill="#8dd3c7" stroke="black" points="457.38,-149.8 454.38,-153.8 433.38,-153.8 430.38,-149.8 374.62,-149.8 374.62,-113.8 457.38,-113.8 457.38,-149.8"/>
<text text-anchor="middle" x="416" y="-127.6" font-family="Times,serif" font-size="14.00">PetsModule</text>
</g>
<!-- PetAddComponent&#45;&gt;PetsModule -->
<g id="edge1" class="edge">
<title>PetAddComponent&#45;&gt;PetsModule</title>
<path fill="none" stroke="black" d="M594.38,-84.83C594.38,-101.2 594.38,-122.8 594.38,-122.8 594.38,-122.8 467.82,-122.8 467.82,-122.8"/>
<polygon fill="black" stroke="black" points="467.82,-119.3 457.82,-122.8 467.82,-126.3 467.82,-119.3"/>
</g>
<!-- PetEditComponent -->
<g id="node2" class="node">
<title>PetEditComponent</title>
<polygon fill="#ffffb3" stroke="black" points="547.05,-84.8 424.95,-84.8 424.95,-48.8 547.05,-48.8 547.05,-84.8"/>
<text text-anchor="middle" x="486" y="-62.6" font-family="Times,serif" font-size="14.00">PetEditComponent</text>
</g>
<!-- PetEditComponent&#45;&gt;PetsModule -->
<g id="edge2" class="edge">
<title>PetEditComponent&#45;&gt;PetsModule</title>
<path fill="none" stroke="black" d="M441.08,-84.91C441.08,-84.91 441.08,-103.79 441.08,-103.79"/>
<polygon fill="black" stroke="black" points="437.58,-103.79 441.08,-113.79 444.58,-103.79 437.58,-103.79"/>
</g>
<!-- PetListComponent -->
<g id="node3" class="node">
<title>PetListComponent</title>
<polygon fill="#ffffb3" stroke="black" points="406.5,-84.8 285.5,-84.8 285.5,-48.8 406.5,-48.8 406.5,-84.8"/>
<text text-anchor="middle" x="346" y="-62.6" font-family="Times,serif" font-size="14.00">PetListComponent</text>
</g>
<!-- PetListComponent&#45;&gt;PetsModule -->
<g id="edge3" class="edge">
<title>PetListComponent&#45;&gt;PetsModule</title>
<path fill="none" stroke="black" d="M390.53,-84.91C390.53,-84.91 390.53,-103.79 390.53,-103.79"/>
<polygon fill="black" stroke="black" points="387.03,-103.79 390.53,-113.79 394.03,-103.79 387.03,-103.79"/>
</g>
<!-- PetAddComponent  -->
<g id="node7" class="node">
<title>PetAddComponent </title>
<polygon fill="#fb8072" stroke="black" points="623.33,-214.8 496.67,-214.8 496.67,-178.8 623.33,-178.8 623.33,-214.8"/>
<text text-anchor="middle" x="560" y="-192.6" font-family="Times,serif" font-size="14.00">PetAddComponent </text>
</g>
<!-- PetsModule&#45;&gt;PetAddComponent  -->
<g id="edge6" class="edge">
<title>PetsModule&#45;&gt;PetAddComponent </title>
<path fill="none" stroke="black" stroke-dasharray="5,2" d="M457.56,-140.8C487.24,-140.8 521.93,-140.8 521.93,-140.8 521.93,-140.8 521.93,-168.77 521.93,-168.77"/>
<polygon fill="black" stroke="black" points="518.43,-168.77 521.93,-178.77 525.43,-168.77 518.43,-168.77"/>
</g>
<!-- PetEditComponent  -->
<g id="node8" class="node">
<title>PetEditComponent </title>
<polygon fill="#fb8072" stroke="black" points="479.05,-214.8 352.95,-214.8 352.95,-178.8 479.05,-178.8 479.05,-214.8"/>
<text text-anchor="middle" x="416" y="-192.6" font-family="Times,serif" font-size="14.00">PetEditComponent </text>
</g>
<!-- PetsModule&#45;&gt;PetEditComponent  -->
<g id="edge7" class="edge">
<title>PetsModule&#45;&gt;PetEditComponent </title>
<path fill="none" stroke="black" stroke-dasharray="5,2" d="M416,-149.91C416,-149.91 416,-168.79 416,-168.79"/>
<polygon fill="black" stroke="black" points="412.5,-168.79 416,-178.79 419.5,-168.79 412.5,-168.79"/>
</g>
<!-- PetListComponent  -->
<g id="node9" class="node">
<title>PetListComponent </title>
<polygon fill="#fb8072" stroke="black" points="335.5,-214.8 210.5,-214.8 210.5,-178.8 335.5,-178.8 335.5,-214.8"/>
<text text-anchor="middle" x="273" y="-192.6" font-family="Times,serif" font-size="14.00">PetListComponent </text>
</g>
<!-- PetsModule&#45;&gt;PetListComponent  -->
<g id="edge8" class="edge">
<title>PetsModule&#45;&gt;PetListComponent </title>
<path fill="none" stroke="black" stroke-dasharray="5,2" d="M374.56,-140.8C344.97,-140.8 310.38,-140.8 310.38,-140.8 310.38,-140.8 310.38,-168.77 310.38,-168.77"/>
<polygon fill="black" stroke="black" points="306.88,-168.77 310.38,-178.77 313.88,-168.77 306.88,-168.77"/>
</g>
<!-- PetsRoutingModule -->
<g id="node5" class="node">
<title>PetsRoutingModule</title>
<polygon fill="#8dd3c7" stroke="black" points="262,-84.8 259,-88.8 238,-88.8 235,-84.8 134,-84.8 134,-48.8 262,-48.8 262,-84.8"/>
<text text-anchor="middle" x="198" y="-62.6" font-family="Times,serif" font-size="14.00">PetsRoutingModule</text>
</g>
<!-- PetsRoutingModule&#45;&gt;PetsModule -->
<g id="edge4" class="edge">
<title>PetsRoutingModule&#45;&gt;PetsModule</title>
<path fill="none" stroke="black" d="M236.38,-84.83C236.38,-101.2 236.38,-122.8 236.38,-122.8 236.38,-122.8 364.34,-122.8 364.34,-122.8"/>
<polygon fill="black" stroke="black" points="364.34,-126.3 374.34,-122.8 364.34,-119.3 364.34,-126.3"/>
</g>
<!-- VisitsModule -->
<g id="node6" class="node">
<title>VisitsModule</title>
<polygon fill="#8dd3c7" stroke="black" points="116.22,-84.8 113.22,-88.8 92.22,-88.8 89.22,-84.8 23.78,-84.8 23.78,-48.8 116.22,-48.8 116.22,-84.8"/>
<text text-anchor="middle" x="70" y="-62.6" font-family="Times,serif" font-size="14.00">VisitsModule</text>
</g>
<!-- VisitsModule&#45;&gt;PetsModule -->
<g id="edge5" class="edge">
<title>VisitsModule&#45;&gt;PetsModule</title>
<path fill="none" stroke="black" d="M70,-84.91C70,-104.14 70,-131.8 70,-131.8 70,-131.8 364.61,-131.8 364.61,-131.8"/>
<polygon fill="black" stroke="black" points="364.61,-135.3 374.61,-131.8 364.61,-128.3 364.61,-135.3"/>
</g>
<!-- PetService -->
<g id="node10" class="node">
<title>PetService</title>
<ellipse fill="#fdb462" stroke="black" cx="765" cy="-66.8" rx="52.16" ry="18"/>
<text text-anchor="middle" x="765" y="-62.6" font-family="Times,serif" font-size="14.00">PetService</text>
</g>
<!-- PetService&#45;&gt;PetsModule -->
<g id="edge9" class="edge">
<title>PetService&#45;&gt;PetsModule</title>
<path fill="none" stroke="black" d="M765,-84.91C765,-104.14 765,-131.8 765,-131.8 765,-131.8 467.41,-131.8 467.41,-131.8"/>
<polygon fill="black" stroke="black" points="467.41,-128.3 457.41,-131.8 467.41,-135.3 467.41,-128.3"/>
</g>
</g>
</svg>
