<?xml version="1.0" encoding="UTF-8" standalone="no"?>
<!DOCTYPE svg PUBLIC "-//W3C//DTD SVG 1.1//EN"
 "http://www.w3.org/Graphics/SVG/1.1/DTD/svg11.dtd">
<!-- Generated by graphviz version 2.47.3 (20210619.1520)
 -->
<!-- Title: dependencies Pages: 1 -->
<svg width="752pt" height="247pt"
 viewBox="0.00 0.00 752.00 246.80" xmlns="http://www.w3.org/2000/svg" xmlns:xlink="http://www.w3.org/1999/xlink">
<g id="graph0" class="graph" transform="scale(1 1) rotate(0) translate(4 242.8)">
<title>dependencies</title>
<polygon fill="white" stroke="transparent" points="-4,4 -4,-242.8 748,-242.8 748,4 -4,4"/>
<text text-anchor="middle" x="372" y="-8.2" font-family="sans-serif" font-size="14.00">dependencies</text>
<g id="clust1" class="cluster">
<title>cluster_VetsModule</title>
<polygon fill="none" stroke="black" stroke-dasharray="1,5" points="8,-32.8 8,-230.8 736,-230.8 736,-32.8 8,-32.8"/>
</g>
<g id="clust2" class="cluster">
<title>cluster_VetsModule_declarations</title>
<polygon fill="none" stroke="black" points="302,-40.8 302,-92.8 728,-92.8 728,-40.8 302,-40.8"/>
</g>
<g id="clust7" class="cluster">
<title>cluster_VetsModule_exports</title>
<polygon fill="none" stroke="black" points="155,-170.8 155,-222.8 592,-222.8 592,-170.8 155,-170.8"/>
</g>
<g id="clust6" class="cluster">
<title>cluster_VetsModule_imports</title>
<polygon fill="none" stroke="black" points="148,-40.8 148,-92.8 294,-92.8 294,-40.8 148,-40.8"/>
</g>
<g id="clust9" class="cluster">
<title>cluster_VetsModule_providers</title>
<polygon fill="none" stroke="black" points="16,-40.8 16,-92.8 140,-92.8 140,-40.8 16,-40.8"/>
</g>
<!-- VetAddComponent -->
<g id="node1" class="node">
<title>VetAddComponent</title>
<polygon fill="#ffffb3" stroke="black" points="719.65,-84.8 594.35,-84.8 594.35,-48.8 719.65,-48.8 719.65,-84.8"/>
<text text-anchor="middle" x="657" y="-62.6" font-family="Times,serif" font-size="14.00">VetAddComponent</text>
</g>
<!-- VetsModule -->
<g id="node4" class="node">
<title>VetsModule</title>
<polygon fill="#8dd3c7" stroke="black" points="414.71,-149.8 411.71,-153.8 390.71,-153.8 387.71,-149.8 329.29,-149.8 329.29,-113.8 414.71,-113.8 414.71,-149.8"/>
<text text-anchor="middle" x="372" y="-127.6" font-family="Times,serif" font-size="14.00">VetsModule</text>
</g>
<!-- VetAddComponent&#45;&gt;VetsModule -->
<g id="edge1" class="edge">
<title>VetAddComponent&#45;&gt;VetsModule</title>
<path fill="none" stroke="black" d="M657,-84.91C657,-104.14 657,-131.8 657,-131.8 657,-131.8 424.67,-131.8 424.67,-131.8"/>
<polygon fill="black" stroke="black" points="424.67,-128.3 414.67,-131.8 424.67,-135.3 424.67,-128.3"/>
</g>
<!-- VetEditComponent -->
<g id="node2" class="node">
<title>VetEditComponent</title>
<polygon fill="#ffffb3" stroke="black" points="576.38,-84.8 451.62,-84.8 451.62,-48.8 576.38,-48.8 576.38,-84.8"/>
<text text-anchor="middle" x="514" y="-62.6" font-family="Times,serif" font-size="14.00">VetEditComponent</text>
</g>
<!-- VetEditComponent&#45;&gt;VetsModule -->
<g id="edge2" class="edge">
<title>VetEditComponent&#45;&gt;VetsModule</title>
<path fill="none" stroke="black" d="M535.77,-84.83C535.77,-101.2 535.77,-122.8 535.77,-122.8 535.77,-122.8 425.03,-122.8 425.03,-122.8"/>
<polygon fill="black" stroke="black" points="425.03,-119.3 415.03,-122.8 425.03,-126.3 425.03,-119.3"/>
</g>
<!-- VetListComponent -->
<g id="node3" class="node">
<title>VetListComponent</title>
<polygon fill="#ffffb3" stroke="black" points="433.82,-84.8 310.18,-84.8 310.18,-48.8 433.82,-48.8 433.82,-84.8"/>
<text text-anchor="middle" x="372" y="-62.6" font-family="Times,serif" font-size="14.00">VetListComponent</text>
</g>
<!-- VetListComponent&#45;&gt;VetsModule -->
<g id="edge3" class="edge">
<title>VetListComponent&#45;&gt;VetsModule</title>
<path fill="none" stroke="black" d="M372,-84.91C372,-84.91 372,-103.79 372,-103.79"/>
<polygon fill="black" stroke="black" points="368.5,-103.79 372,-113.79 375.5,-103.79 368.5,-103.79"/>
</g>
<!-- VetAddComponent  -->
<g id="node6" class="node">
<title>VetAddComponent </title>
<polygon fill="#fb8072" stroke="black" points="583.65,-214.8 454.35,-214.8 454.35,-178.8 583.65,-178.8 583.65,-214.8"/>
<text text-anchor="middle" x="519" y="-192.6" font-family="Times,serif" font-size="14.00">VetAddComponent </text>
</g>
<!-- VetsModule&#45;&gt;VetAddComponent  -->
<g id="edge5" class="edge">
<title>VetsModule&#45;&gt;VetAddComponent </title>
<path fill="none" stroke="black" stroke-dasharray="5,2" d="M414.71,-140.8C450.26,-140.8 495.1,-140.8 495.1,-140.8 495.1,-140.8 495.1,-168.77 495.1,-168.77"/>
<polygon fill="black" stroke="black" points="491.6,-168.77 495.1,-178.77 498.6,-168.77 491.6,-168.77"/>
</g>
<!-- VetEditComponent  -->
<g id="node7" class="node">
<title>VetEditComponent </title>
<polygon fill="#fb8072" stroke="black" points="436.38,-214.8 307.62,-214.8 307.62,-178.8 436.38,-178.8 436.38,-214.8"/>
<text text-anchor="middle" x="372" y="-192.6" font-family="Times,serif" font-size="14.00">VetEditComponent </text>
</g>
<!-- VetsModule&#45;&gt;VetEditComponent  -->
<g id="edge6" class="edge">
<title>VetsModule&#45;&gt;VetEditComponent </title>
<path fill="none" stroke="black" stroke-dasharray="5,2" d="M372,-149.91C372,-149.91 372,-168.79 372,-168.79"/>
<polygon fill="black" stroke="black" points="368.5,-168.79 372,-178.79 375.5,-168.79 368.5,-168.79"/>
</g>
<!-- VetListComponent  -->
<g id="node8" class="node">
<title>VetListComponent </title>
<polygon fill="#fb8072" stroke="black" points="289.32,-214.8 162.68,-214.8 162.68,-178.8 289.32,-178.8 289.32,-214.8"/>
<text text-anchor="middle" x="226" y="-192.6" font-family="Times,serif" font-size="14.00">VetListComponent </text>
</g>
<!-- VetsModule&#45;&gt;VetListComponent  -->
<g id="edge7" class="edge">
<title>VetsModule&#45;&gt;VetListComponent </title>
<path fill="none" stroke="black" stroke-dasharray="5,2" d="M329.35,-140.8C292.44,-140.8 244.97,-140.8 244.97,-140.8 244.97,-140.8 244.97,-168.77 244.97,-168.77"/>
<polygon fill="black" stroke="black" points="241.47,-168.77 244.97,-178.77 248.47,-168.77 241.47,-168.77"/>
</g>
<!-- VetsRoutingModule -->
<g id="node5" class="node">
<title>VetsRoutingModule</title>
<polygon fill="#8dd3c7" stroke="black" points="286.32,-84.8 283.32,-88.8 262.32,-88.8 259.32,-84.8 155.68,-84.8 155.68,-48.8 286.32,-48.8 286.32,-84.8"/>
<text text-anchor="middle" x="221" y="-62.6" font-family="Times,serif" font-size="14.00">VetsRoutingModule</text>
</g>
<!-- VetsRoutingModule&#45;&gt;VetsModule -->
<g id="edge4" class="edge">
<title>VetsRoutingModule&#45;&gt;VetsModule</title>
<path fill="none" stroke="black" d="M203.78,-84.83C203.78,-101.2 203.78,-122.8 203.78,-122.8 203.78,-122.8 319.12,-122.8 319.12,-122.8"/>
<polygon fill="black" stroke="black" points="319.12,-126.3 329.12,-122.8 319.12,-119.3 319.12,-126.3"/>
</g>
<!-- VetService -->
<g id="node9" class="node">
<title>VetService</title>
<ellipse fill="#fdb462" stroke="black" cx="78" cy="-66.8" rx="53.87" ry="18"/>
<text text-anchor="middle" x="78" y="-62.6" font-family="Times,serif" font-size="14.00">VetService</text>
</g>
<!-- VetService&#45;&gt;VetsModule -->
<g id="edge8" class="edge">
<title>VetService&#45;&gt;VetsModule</title>
<path fill="none" stroke="black" d="M78,-84.91C78,-104.14 78,-131.8 78,-131.8 78,-131.8 319.25,-131.8 319.25,-131.8"/>
<polygon fill="black" stroke="black" points="319.25,-135.3 329.25,-131.8 319.25,-128.3 319.25,-135.3"/>
</g>
</g>
</svg>
