<?xml version="1.0" encoding="UTF-8" standalone="no"?>
<!DOCTYPE svg PUBLIC "-//W3C//DTD SVG 1.1//EN"
 "http://www.w3.org/Graphics/SVG/1.1/DTD/svg11.dtd">
<!-- Generated by graphviz version 2.47.3 (20210619.1520)
 -->
<!-- Title: dependencies Pages: 1 -->
<svg width="381pt" height="247pt"
 viewBox="0.00 0.00 381.00 246.80" xmlns="http://www.w3.org/2000/svg" xmlns:xlink="http://www.w3.org/1999/xlink">
<g id="graph0" class="graph" transform="scale(1 1) rotate(0) translate(4 242.8)">
<title>dependencies</title>
<polygon fill="white" stroke="transparent" points="-4,4 -4,-242.8 377,-242.8 377,4 -4,4"/>
<text text-anchor="middle" x="186.5" y="-8.2" font-family="sans-serif" font-size="14.00">dependencies</text>
<g id="clust1" class="cluster">
<title>cluster_PartsModule</title>
<polygon fill="none" stroke="black" stroke-dasharray="1,5" points="8,-32.8 8,-230.8 365,-230.8 365,-32.8 8,-32.8"/>
</g>
<g id="clust6" class="cluster">
<title>cluster_PartsModule_exports</title>
<polygon fill="none" stroke="black" points="16,-170.8 16,-222.8 357,-222.8 357,-170.8 16,-170.8"/>
</g>
<g id="clust2" class="cluster">
<title>cluster_PartsModule_declarations</title>
<polygon fill="none" stroke="black" points="20,-40.8 20,-92.8 354,-92.8 354,-40.8 20,-40.8"/>
</g>
<!-- PageNotFoundComponent -->
<g id="node1" class="node">
<title>PageNotFoundComponent</title>
<polygon fill="#ffffb3" stroke="black" points="345.82,-84.8 180.18,-84.8 180.18,-48.8 345.82,-48.8 345.82,-84.8"/>
<text text-anchor="middle" x="263" y="-62.6" font-family="Times,serif" font-size="14.00">PageNotFoundComponent</text>
</g>
<!-- PartsModule -->
<g id="node3" class="node">
<title>PartsModule</title>
<polygon fill="#8dd3c7" stroke="black" points="139.54,-149.8 136.54,-153.8 115.54,-153.8 112.54,-149.8 52.46,-149.8 52.46,-113.8 139.54,-113.8 139.54,-149.8"/>
<text text-anchor="middle" x="96" y="-127.6" font-family="Times,serif" font-size="14.00">PartsModule</text>
</g>
<!-- PageNotFoundComponent&#45;&gt;PartsModule -->
<g id="edge1" class="edge">
<title>PageNotFoundComponent&#45;&gt;PartsModule</title>
<path fill="none" stroke="black" d="M290.64,-84.82C290.64,-102.17 290.64,-125.8 290.64,-125.8 290.64,-125.8 149.68,-125.8 149.68,-125.8"/>
<polygon fill="black" stroke="black" points="149.68,-122.3 139.68,-125.8 149.68,-129.3 149.68,-122.3"/>
</g>
<!-- WelcomeComponent -->
<g id="node2" class="node">
<title>WelcomeComponent</title>
<polygon fill="#ffffb3" stroke="black" points="162.47,-84.8 27.53,-84.8 27.53,-48.8 162.47,-48.8 162.47,-84.8"/>
<text text-anchor="middle" x="95" y="-62.6" font-family="Times,serif" font-size="14.00">WelcomeComponent</text>
</g>
<!-- WelcomeComponent&#45;&gt;PartsModule -->
<g id="edge2" class="edge">
<title>WelcomeComponent&#45;&gt;PartsModule</title>
<path fill="none" stroke="black" d="M96,-84.91C96,-84.91 96,-103.79 96,-103.79"/>
<polygon fill="black" stroke="black" points="92.5,-103.79 96,-113.79 99.5,-103.79 92.5,-103.79"/>
</g>
<!-- PageNotFoundComponent  -->
<g id="node4" class="node">
<title>PageNotFoundComponent </title>
<polygon fill="#fb8072" stroke="black" points="349.32,-214.8 180.68,-214.8 180.68,-178.8 349.32,-178.8 349.32,-214.8"/>
<text text-anchor="middle" x="265" y="-192.6" font-family="Times,serif" font-size="14.00">PageNotFoundComponent </text>
</g>
<!-- PartsModule&#45;&gt;PageNotFoundComponent  -->
<g id="edge3" class="edge">
<title>PartsModule&#45;&gt;PageNotFoundComponent </title>
<path fill="none" stroke="black" stroke-dasharray="5,2" d="M139.79,-137.8C180.74,-137.8 235.61,-137.8 235.61,-137.8 235.61,-137.8 235.61,-168.78 235.61,-168.78"/>
<polygon fill="black" stroke="black" points="232.11,-168.78 235.61,-178.78 239.11,-168.78 232.11,-168.78"/>
</g>
<!-- WelcomeComponent  -->
<g id="node5" class="node">
<title>WelcomeComponent </title>
<polygon fill="#fb8072" stroke="black" points="162.47,-214.8 23.53,-214.8 23.53,-178.8 162.47,-178.8 162.47,-214.8"/>
<text text-anchor="middle" x="93" y="-192.6" font-family="Times,serif" font-size="14.00">WelcomeComponent </text>
</g>
<!-- PartsModule&#45;&gt;WelcomeComponent  -->
<g id="edge4" class="edge">
<title>PartsModule&#45;&gt;WelcomeComponent </title>
<path fill="none" stroke="black" stroke-dasharray="5,2" d="M96,-149.91C96,-149.91 96,-168.79 96,-168.79"/>
<polygon fill="black" stroke="black" points="92.5,-168.79 96,-178.79 99.5,-168.79 92.5,-168.79"/>
</g>
</g>
</svg>
