<?xml version="1.0" encoding="UTF-8" standalone="no"?>
<!DOCTYPE svg PUBLIC "-//W3C//DTD SVG 1.1//EN"
 "http://www.w3.org/Graphics/SVG/1.1/DTD/svg11.dtd">
<!-- Generated by graphviz version 2.47.3 (20210619.1520)
 -->
<!-- Title: dependencies Pages: 1 -->
<svg width="1308pt" height="247pt"
 viewBox="0.00 0.00 1308.00 246.80" xmlns="http://www.w3.org/2000/svg" xmlns:xlink="http://www.w3.org/1999/xlink">
<g id="graph0" class="graph" transform="scale(1 1) rotate(0) translate(4 242.8)">
<title>dependencies</title>
<polygon fill="white" stroke="transparent" points="-4,4 -4,-242.8 1304,-242.8 1304,4 -4,4"/>
<text text-anchor="middle" x="650" y="-8.2" font-family="sans-serif" font-size="14.00">dependencies</text>
<g id="clust1" class="cluster">
<title>cluster_AppModule</title>
<polygon fill="none" stroke="black" stroke-dasharray="1,5" points="8,-32.8 8,-230.8 1292,-230.8 1292,-32.8 8,-32.8"/>
</g>
<g id="clust2" class="cluster">
<title>cluster_AppModule_declarations</title>
<polygon fill="none" stroke="black" points="1162,-40.8 1162,-92.8 1284,-92.8 1284,-40.8 1162,-40.8"/>
</g>
<g id="clust4" class="cluster">
<title>cluster_AppModule_imports</title>
<polygon fill="none" stroke="black" points="200,-40.8 200,-92.8 1154,-92.8 1154,-40.8 200,-40.8"/>
</g>
<g id="clust6" class="cluster">
<title>cluster_AppModule_bootstrap</title>
<polygon fill="none" stroke="black" points="597,-170.8 597,-222.8 721,-222.8 721,-170.8 597,-170.8"/>
</g>
<g id="clust7" class="cluster">
<title>cluster_AppModule_providers</title>
<polygon fill="none" stroke="black" points="16,-40.8 16,-92.8 192,-92.8 192,-40.8 16,-40.8"/>
</g>
<!-- AppComponent -->
<g id="node1" class="node">
<title>AppComponent</title>
<polygon fill="#ffffb3" stroke="black" points="1275.94,-84.8 1170.06,-84.8 1170.06,-48.8 1275.94,-48.8 1275.94,-84.8"/>
<text text-anchor="middle" x="1223" y="-62.6" font-family="Times,serif" font-size="14.00">AppComponent</text>
</g>
<!-- AppModule -->
<g id="node2" class="node">
<title>AppModule</title>
<polygon fill="#8dd3c7" stroke="black" points="700.66,-149.8 697.66,-153.8 676.66,-153.8 673.66,-149.8 617.34,-149.8 617.34,-113.8 700.66,-113.8 700.66,-149.8"/>
<text text-anchor="middle" x="659" y="-127.6" font-family="Times,serif" font-size="14.00">AppModule</text>
</g>
<!-- AppComponent&#45;&gt;AppModule -->
<g id="edge1" class="edge">
<title>AppComponent&#45;&gt;AppModule</title>
<path fill="none" stroke="black" d="M1223,-84.81C1223,-107.29 1223,-142.8 1223,-142.8 1223,-142.8 710.93,-142.8 710.93,-142.8"/>
<polygon fill="black" stroke="black" points="710.93,-139.3 700.93,-142.8 710.93,-146.3 710.93,-139.3"/>
</g>
<!-- AppComponent  -->
<g id="node11" class="node">
<title>AppComponent </title>
<polygon fill="#80b1d3" stroke="black" points="713.44,-214.8 604.56,-214.8 604.56,-178.8 713.44,-178.8 713.44,-214.8"/>
<text text-anchor="middle" x="659" y="-192.6" font-family="Times,serif" font-size="14.00">AppComponent </text>
</g>
<!-- AppModule&#45;&gt;AppComponent  -->
<g id="edge10" class="edge">
<title>AppModule&#45;&gt;AppComponent </title>
<path fill="none" stroke="black" stroke-dasharray="1,5" d="M659,-149.91C659,-149.91 659,-168.79 659,-168.79"/>
<polygon fill="black" stroke="black" points="655.5,-168.79 659,-178.79 662.5,-168.79 655.5,-168.79"/>
</g>
<!-- AppRoutingModule -->
<g id="node3" class="node">
<title>AppRoutingModule</title>
<polygon fill="#8dd3c7" stroke="black" points="1146.27,-84.8 1143.27,-88.8 1122.27,-88.8 1119.27,-84.8 1017.73,-84.8 1017.73,-48.8 1146.27,-48.8 1146.27,-84.8"/>
<text text-anchor="middle" x="1082" y="-62.6" font-family="Times,serif" font-size="14.00">AppRoutingModule</text>
</g>
<!-- AppRoutingModule&#45;&gt;AppModule -->
<g id="edge2" class="edge">
<title>AppRoutingModule&#45;&gt;AppModule</title>
<path fill="none" stroke="black" d="M1082,-84.93C1082,-105.37 1082,-135.8 1082,-135.8 1082,-135.8 710.72,-135.8 710.72,-135.8"/>
<polygon fill="black" stroke="black" points="710.72,-132.3 700.72,-135.8 710.72,-139.3 710.72,-132.3"/>
</g>
<!-- OwnersModule -->
<g id="node4" class="node">
<title>OwnersModule</title>
<polygon fill="#8dd3c7" stroke="black" points="999.58,-84.8 996.58,-88.8 975.58,-88.8 972.58,-84.8 896.42,-84.8 896.42,-48.8 999.58,-48.8 999.58,-84.8"/>
<text text-anchor="middle" x="948" y="-62.6" font-family="Times,serif" font-size="14.00">OwnersModule</text>
</g>
<!-- OwnersModule&#45;&gt;AppModule -->
<g id="edge3" class="edge">
<title>OwnersModule&#45;&gt;AppModule</title>
<path fill="none" stroke="black" d="M948,-85.07C948,-103.36 948,-128.8 948,-128.8 948,-128.8 710.71,-128.8 710.71,-128.8"/>
<polygon fill="black" stroke="black" points="710.71,-125.3 700.71,-128.8 710.71,-132.3 710.71,-125.3"/>
</g>
<!-- PartsModule -->
<g id="node5" class="node">
<title>PartsModule</title>
<polygon fill="#8dd3c7" stroke="black" points="878.54,-84.8 875.54,-88.8 854.54,-88.8 851.54,-84.8 791.46,-84.8 791.46,-48.8 878.54,-48.8 878.54,-84.8"/>
<text text-anchor="middle" x="835" y="-62.6" font-family="Times,serif" font-size="14.00">PartsModule</text>
</g>
<!-- PartsModule&#45;&gt;AppModule -->
<g id="edge4" class="edge">
<title>PartsModule&#45;&gt;AppModule</title>
<path fill="none" stroke="black" d="M835,-84.81C835,-100.85 835,-121.8 835,-121.8 835,-121.8 710.71,-121.8 710.71,-121.8"/>
<polygon fill="black" stroke="black" points="710.71,-118.3 700.71,-121.8 710.71,-125.3 710.71,-118.3"/>
</g>
<!-- PetTypesModule -->
<g id="node6" class="node">
<title>PetTypesModule</title>
<polygon fill="#8dd3c7" stroke="black" points="772.65,-84.8 769.65,-88.8 748.65,-88.8 745.65,-84.8 661.35,-84.8 661.35,-48.8 772.65,-48.8 772.65,-84.8"/>
<text text-anchor="middle" x="717" y="-62.6" font-family="Times,serif" font-size="14.00">PetTypesModule</text>
</g>
<!-- PetTypesModule&#45;&gt;AppModule -->
<g id="edge5" class="edge">
<title>PetTypesModule&#45;&gt;AppModule</title>
<path fill="none" stroke="black" d="M681,-84.91C681,-84.91 681,-103.79 681,-103.79"/>
<polygon fill="black" stroke="black" points="677.5,-103.79 681,-113.79 684.5,-103.79 677.5,-103.79"/>
</g>
<!-- PetsModule -->
<g id="node7" class="node">
<title>PetsModule</title>
<polygon fill="#8dd3c7" stroke="black" points="643.38,-84.8 640.38,-88.8 619.38,-88.8 616.38,-84.8 560.62,-84.8 560.62,-48.8 643.38,-48.8 643.38,-84.8"/>
<text text-anchor="middle" x="602" y="-62.6" font-family="Times,serif" font-size="14.00">PetsModule</text>
</g>
<!-- PetsModule&#45;&gt;AppModule -->
<g id="edge6" class="edge">
<title>PetsModule&#45;&gt;AppModule</title>
<path fill="none" stroke="black" d="M630.31,-84.91C630.31,-84.91 630.31,-103.79 630.31,-103.79"/>
<polygon fill="black" stroke="black" points="626.81,-103.79 630.31,-113.79 633.81,-103.79 626.81,-103.79"/>
</g>
<!-- SpecialtiesModule -->
<g id="node8" class="node">
<title>SpecialtiesModule</title>
<polygon fill="#8dd3c7" stroke="black" points="542.2,-84.8 539.2,-88.8 518.2,-88.8 515.2,-84.8 421.8,-84.8 421.8,-48.8 542.2,-48.8 542.2,-84.8"/>
<text text-anchor="middle" x="482" y="-62.6" font-family="Times,serif" font-size="14.00">SpecialtiesModule</text>
</g>
<!-- SpecialtiesModule&#45;&gt;AppModule -->
<g id="edge7" class="edge">
<title>SpecialtiesModule&#45;&gt;AppModule</title>
<path fill="none" stroke="black" d="M482,-84.81C482,-100.85 482,-121.8 482,-121.8 482,-121.8 607.05,-121.8 607.05,-121.8"/>
<polygon fill="black" stroke="black" points="607.05,-125.3 617.05,-121.8 607.05,-118.3 607.05,-125.3"/>
</g>
<!-- VetsModule -->
<g id="node9" class="node">
<title>VetsModule</title>
<polygon fill="#8dd3c7" stroke="black" points="403.71,-84.8 400.71,-88.8 379.71,-88.8 376.71,-84.8 318.29,-84.8 318.29,-48.8 403.71,-48.8 403.71,-84.8"/>
<text text-anchor="middle" x="361" y="-62.6" font-family="Times,serif" font-size="14.00">VetsModule</text>
</g>
<!-- VetsModule&#45;&gt;AppModule -->
<g id="edge8" class="edge">
<title>VetsModule&#45;&gt;AppModule</title>
<path fill="none" stroke="black" d="M361,-85.07C361,-103.36 361,-128.8 361,-128.8 361,-128.8 607.25,-128.8 607.25,-128.8"/>
<polygon fill="black" stroke="black" points="607.25,-132.3 617.25,-128.8 607.25,-125.3 607.25,-132.3"/>
</g>
<!-- VisitsModule -->
<g id="node10" class="node">
<title>VisitsModule</title>
<polygon fill="#8dd3c7" stroke="black" points="300.22,-84.8 297.22,-88.8 276.22,-88.8 273.22,-84.8 207.78,-84.8 207.78,-48.8 300.22,-48.8 300.22,-84.8"/>
<text text-anchor="middle" x="254" y="-62.6" font-family="Times,serif" font-size="14.00">VisitsModule</text>
</g>
<!-- VisitsModule&#45;&gt;AppModule -->
<g id="edge9" class="edge">
<title>VisitsModule&#45;&gt;AppModule</title>
<path fill="none" stroke="black" d="M254,-84.93C254,-105.37 254,-135.8 254,-135.8 254,-135.8 607.18,-135.8 607.18,-135.8"/>
<polygon fill="black" stroke="black" points="607.18,-139.3 617.18,-135.8 607.18,-132.3 607.18,-139.3"/>
</g>
<!-- HttpErrorHandler -->
<g id="node12" class="node">
<title>HttpErrorHandler</title>
<ellipse fill="#fdb462" stroke="black" cx="104" cy="-66.8" rx="79.85" ry="18"/>
<text text-anchor="middle" x="104" y="-62.6" font-family="Times,serif" font-size="14.00">HttpErrorHandler</text>
</g>
<!-- HttpErrorHandler&#45;&gt;AppModule -->
<g id="edge11" class="edge">
<title>HttpErrorHandler&#45;&gt;AppModule</title>
<path fill="none" stroke="black" d="M104,-84.81C104,-107.29 104,-142.8 104,-142.8 104,-142.8 607.28,-142.8 607.28,-142.8"/>
<polygon fill="black" stroke="black" points="607.28,-146.3 617.28,-142.8 607.28,-139.3 607.28,-146.3"/>
</g>
</g>
</svg>
