<?xml version="1.0" encoding="UTF-8" standalone="no"?>
<!DOCTYPE svg PUBLIC "-//W3C//DTD SVG 1.1//EN"
 "http://www.w3.org/Graphics/SVG/1.1/DTD/svg11.dtd">
<!-- Generated by graphviz version 2.47.3 (20210619.1520)
 -->
<!-- Title: dependencies Pages: 1 -->
<svg width="928pt" height="247pt"
 viewBox="0.00 0.00 928.00 246.80" xmlns="http://www.w3.org/2000/svg" xmlns:xlink="http://www.w3.org/1999/xlink">
<g id="graph0" class="graph" transform="scale(1 1) rotate(0) translate(4 242.8)">
<title>dependencies</title>
<polygon fill="white" stroke="transparent" points="-4,4 -4,-242.8 924,-242.8 924,4 -4,4"/>
<text text-anchor="middle" x="460" y="-8.2" font-family="sans-serif" font-size="14.00">dependencies</text>
<g id="clust1" class="cluster">
<title>cluster_SpecialtiesModule</title>
<polygon fill="none" stroke="black" stroke-dasharray="1,5" points="8,-32.8 8,-230.8 912,-230.8 912,-32.8 8,-32.8"/>
</g>
<g id="clust6" class="cluster">
<title>cluster_SpecialtiesModule_imports</title>
<polygon fill="none" stroke="black" points="722,-40.8 722,-92.8 904,-92.8 904,-40.8 722,-40.8"/>
</g>
<g id="clust7" class="cluster">
<title>cluster_SpecialtiesModule_exports</title>
<polygon fill="none" stroke="black" points="364,-170.8 364,-222.8 538,-222.8 538,-170.8 364,-170.8"/>
</g>
<g id="clust9" class="cluster">
<title>cluster_SpecialtiesModule_providers</title>
<polygon fill="none" stroke="black" points="546,-40.8 546,-92.8 714,-92.8 714,-40.8 546,-40.8"/>
</g>
<g id="clust2" class="cluster">
<title>cluster_SpecialtiesModule_declarations</title>
<polygon fill="none" stroke="black" points="16,-40.8 16,-92.8 538,-92.8 538,-40.8 16,-40.8"/>
</g>
<!-- SpecialtyAddComponent -->
<g id="node1" class="node">
<title>SpecialtyAddComponent</title>
<polygon fill="#ffffb3" stroke="black" points="529.54,-84.8 372.46,-84.8 372.46,-48.8 529.54,-48.8 529.54,-84.8"/>
<text text-anchor="middle" x="451" y="-62.6" font-family="Times,serif" font-size="14.00">SpecialtyAddComponent</text>
</g>
<!-- SpecialtiesModule -->
<g id="node4" class="node">
<title>SpecialtiesModule</title>
<polygon fill="#8dd3c7" stroke="black" points="511.2,-149.8 508.2,-153.8 487.2,-153.8 484.2,-149.8 390.8,-149.8 390.8,-113.8 511.2,-113.8 511.2,-149.8"/>
<text text-anchor="middle" x="451" y="-127.6" font-family="Times,serif" font-size="14.00">SpecialtiesModule</text>
</g>
<!-- SpecialtyAddComponent&#45;&gt;SpecialtiesModule -->
<g id="edge1" class="edge">
<title>SpecialtyAddComponent&#45;&gt;SpecialtiesModule</title>
<path fill="none" stroke="black" d="M451,-84.91C451,-84.91 451,-103.79 451,-103.79"/>
<polygon fill="black" stroke="black" points="447.5,-103.79 451,-113.79 454.5,-103.79 447.5,-103.79"/>
</g>
<!-- SpecialtyEditComponent -->
<g id="node2" class="node">
<title>SpecialtyEditComponent</title>
<polygon fill="#ffffb3" stroke="black" points="354.26,-84.8 197.74,-84.8 197.74,-48.8 354.26,-48.8 354.26,-84.8"/>
<text text-anchor="middle" x="276" y="-62.6" font-family="Times,serif" font-size="14.00">SpecialtyEditComponent</text>
</g>
<!-- SpecialtyEditComponent&#45;&gt;SpecialtiesModule -->
<g id="edge2" class="edge">
<title>SpecialtyEditComponent&#45;&gt;SpecialtiesModule</title>
<path fill="none" stroke="black" d="M276,-84.82C276,-102.17 276,-125.8 276,-125.8 276,-125.8 380.77,-125.8 380.77,-125.8"/>
<polygon fill="black" stroke="black" points="380.77,-129.3 390.77,-125.8 380.77,-122.3 380.77,-129.3"/>
</g>
<!-- SpecialtyListComponent -->
<g id="node3" class="node">
<title>SpecialtyListComponent</title>
<polygon fill="#ffffb3" stroke="black" points="179.71,-84.8 24.29,-84.8 24.29,-48.8 179.71,-48.8 179.71,-84.8"/>
<text text-anchor="middle" x="102" y="-62.6" font-family="Times,serif" font-size="14.00">SpecialtyListComponent</text>
</g>
<!-- SpecialtyListComponent&#45;&gt;SpecialtiesModule -->
<g id="edge3" class="edge">
<title>SpecialtyListComponent&#45;&gt;SpecialtiesModule</title>
<path fill="none" stroke="black" d="M102,-85.08C102,-106.12 102,-137.8 102,-137.8 102,-137.8 380.61,-137.8 380.61,-137.8"/>
<polygon fill="black" stroke="black" points="380.61,-141.3 390.61,-137.8 380.61,-134.3 380.61,-141.3"/>
</g>
<!-- SpecialtyListComponent  -->
<g id="node6" class="node">
<title>SpecialtyListComponent </title>
<polygon fill="#fb8072" stroke="black" points="530.21,-214.8 371.79,-214.8 371.79,-178.8 530.21,-178.8 530.21,-214.8"/>
<text text-anchor="middle" x="451" y="-192.6" font-family="Times,serif" font-size="14.00">SpecialtyListComponent </text>
</g>
<!-- SpecialtiesModule&#45;&gt;SpecialtyListComponent  -->
<g id="edge5" class="edge">
<title>SpecialtiesModule&#45;&gt;SpecialtyListComponent </title>
<path fill="none" stroke="black" stroke-dasharray="5,2" d="M451,-149.91C451,-149.91 451,-168.79 451,-168.79"/>
<polygon fill="black" stroke="black" points="447.5,-168.79 451,-178.79 454.5,-168.79 447.5,-168.79"/>
</g>
<!-- SpecialtiesRoutingModule -->
<g id="node5" class="node">
<title>SpecialtiesRoutingModule</title>
<polygon fill="#8dd3c7" stroke="black" points="895.82,-84.8 892.82,-88.8 871.82,-88.8 868.82,-84.8 730.18,-84.8 730.18,-48.8 895.82,-48.8 895.82,-84.8"/>
<text text-anchor="middle" x="813" y="-62.6" font-family="Times,serif" font-size="14.00">SpecialtiesRoutingModule</text>
</g>
<!-- SpecialtiesRoutingModule&#45;&gt;SpecialtiesModule -->
<g id="edge4" class="edge">
<title>SpecialtiesRoutingModule&#45;&gt;SpecialtiesModule</title>
<path fill="none" stroke="black" d="M813,-85.08C813,-106.12 813,-137.8 813,-137.8 813,-137.8 521.18,-137.8 521.18,-137.8"/>
<polygon fill="black" stroke="black" points="521.18,-134.3 511.18,-137.8 521.18,-141.3 521.18,-134.3"/>
</g>
<!-- SpecialtyService -->
<g id="node7" class="node">
<title>SpecialtyService</title>
<ellipse fill="#fdb462" stroke="black" cx="630" cy="-66.8" rx="75.86" ry="18"/>
<text text-anchor="middle" x="630" y="-62.6" font-family="Times,serif" font-size="14.00">SpecialtyService</text>
</g>
<!-- SpecialtyService&#45;&gt;SpecialtiesModule -->
<g id="edge6" class="edge">
<title>SpecialtyService&#45;&gt;SpecialtiesModule</title>
<path fill="none" stroke="black" d="M630,-84.82C630,-102.17 630,-125.8 630,-125.8 630,-125.8 521.1,-125.8 521.1,-125.8"/>
<polygon fill="black" stroke="black" points="521.1,-122.3 511.1,-125.8 521.1,-129.3 521.1,-122.3"/>
</g>
</g>
</svg>
