<?xml version="1.0" encoding="UTF-8" standalone="no"?>
<!DOCTYPE svg PUBLIC "-//W3C//DTD SVG 1.1//EN"
 "http://www.w3.org/Graphics/SVG/1.1/DTD/svg11.dtd">
<!-- Generated by graphviz version 2.47.3 (20210619.1520)
 -->
<!-- Title: dependencies Pages: 1 -->
<svg width="936pt" height="247pt"
 viewBox="0.00 0.00 936.00 246.80" xmlns="http://www.w3.org/2000/svg" xmlns:xlink="http://www.w3.org/1999/xlink">
<g id="graph0" class="graph" transform="scale(1 1) rotate(0) translate(4 242.8)">
<title>dependencies</title>
<polygon fill="white" stroke="transparent" points="-4,4 -4,-242.8 932,-242.8 932,4 -4,4"/>
<text text-anchor="middle" x="464" y="-8.2" font-family="sans-serif" font-size="14.00">dependencies</text>
<g id="clust1" class="cluster">
<title>cluster_VisitsModule</title>
<polygon fill="none" stroke="black" stroke-dasharray="1,5" points="8,-32.8 8,-230.8 920,-230.8 920,-32.8 8,-32.8"/>
</g>
<g id="clust9" class="cluster">
<title>cluster_VisitsModule_providers</title>
<polygon fill="none" stroke="black" points="778,-40.8 778,-92.8 912,-92.8 912,-40.8 778,-40.8"/>
</g>
<g id="clust2" class="cluster">
<title>cluster_VisitsModule_declarations</title>
<polygon fill="none" stroke="black" points="324,-40.8 324,-92.8 770,-92.8 770,-40.8 324,-40.8"/>
</g>
<g id="clust6" class="cluster">
<title>cluster_VisitsModule_imports</title>
<polygon fill="none" stroke="black" points="16,-40.8 16,-92.8 316,-92.8 316,-40.8 16,-40.8"/>
</g>
<g id="clust7" class="cluster">
<title>cluster_VisitsModule_exports</title>
<polygon fill="none" stroke="black" points="243,-170.8 243,-222.8 701,-222.8 701,-170.8 243,-170.8"/>
</g>
<!-- VisitAddComponent -->
<g id="node1" class="node">
<title>VisitAddComponent</title>
<polygon fill="#ffffb3" stroke="black" points="762.16,-84.8 629.84,-84.8 629.84,-48.8 762.16,-48.8 762.16,-84.8"/>
<text text-anchor="middle" x="696" y="-62.6" font-family="Times,serif" font-size="14.00">VisitAddComponent</text>
</g>
<!-- VisitsModule -->
<g id="node4" class="node">
<title>VisitsModule</title>
<polygon fill="#8dd3c7" stroke="black" points="517.22,-149.8 514.22,-153.8 493.22,-153.8 490.22,-149.8 424.78,-149.8 424.78,-113.8 517.22,-113.8 517.22,-149.8"/>
<text text-anchor="middle" x="471" y="-127.6" font-family="Times,serif" font-size="14.00">VisitsModule</text>
</g>
<!-- VisitAddComponent&#45;&gt;VisitsModule -->
<g id="edge1" class="edge">
<title>VisitAddComponent&#45;&gt;VisitsModule</title>
<path fill="none" stroke="black" d="M661.38,-84.83C661.38,-101.2 661.38,-122.8 661.38,-122.8 661.38,-122.8 527.57,-122.8 527.57,-122.8"/>
<polygon fill="black" stroke="black" points="527.57,-119.3 517.57,-122.8 527.57,-126.3 527.57,-119.3"/>
</g>
<!-- VisitEditComponent -->
<g id="node2" class="node">
<title>VisitEditComponent</title>
<polygon fill="#ffffb3" stroke="black" points="611.89,-84.8 480.11,-84.8 480.11,-48.8 611.89,-48.8 611.89,-84.8"/>
<text text-anchor="middle" x="546" y="-62.6" font-family="Times,serif" font-size="14.00">VisitEditComponent</text>
</g>
<!-- VisitEditComponent&#45;&gt;VisitsModule -->
<g id="edge2" class="edge">
<title>VisitEditComponent&#45;&gt;VisitsModule</title>
<path fill="none" stroke="black" d="M498.58,-84.91C498.58,-84.91 498.58,-103.79 498.58,-103.79"/>
<polygon fill="black" stroke="black" points="495.08,-103.79 498.58,-113.79 502.08,-103.79 495.08,-103.79"/>
</g>
<!-- VisitListComponent -->
<g id="node3" class="node">
<title>VisitListComponent</title>
<polygon fill="#ffffb3" stroke="black" points="462.33,-84.8 331.67,-84.8 331.67,-48.8 462.33,-48.8 462.33,-84.8"/>
<text text-anchor="middle" x="397" y="-62.6" font-family="Times,serif" font-size="14.00">VisitListComponent</text>
</g>
<!-- VisitListComponent&#45;&gt;VisitsModule -->
<g id="edge3" class="edge">
<title>VisitListComponent&#45;&gt;VisitsModule</title>
<path fill="none" stroke="black" d="M443.53,-84.91C443.53,-84.91 443.53,-103.79 443.53,-103.79"/>
<polygon fill="black" stroke="black" points="440.03,-103.79 443.53,-113.79 447.03,-103.79 440.03,-103.79"/>
</g>
<!-- VisitAddComponent  -->
<g id="node7" class="node">
<title>VisitAddComponent </title>
<polygon fill="#fb8072" stroke="black" points="693.16,-214.8 556.84,-214.8 556.84,-178.8 693.16,-178.8 693.16,-214.8"/>
<text text-anchor="middle" x="625" y="-192.6" font-family="Times,serif" font-size="14.00">VisitAddComponent </text>
</g>
<!-- VisitsModule&#45;&gt;VisitAddComponent  -->
<g id="edge6" class="edge">
<title>VisitsModule&#45;&gt;VisitAddComponent </title>
<path fill="none" stroke="black" stroke-dasharray="5,2" d="M517.14,-140.8C548.54,-140.8 584.43,-140.8 584.43,-140.8 584.43,-140.8 584.43,-168.77 584.43,-168.77"/>
<polygon fill="black" stroke="black" points="580.93,-168.77 584.43,-178.77 587.93,-168.77 580.93,-168.77"/>
</g>
<!-- VisitEditComponent  -->
<g id="node8" class="node">
<title>VisitEditComponent </title>
<polygon fill="#fb8072" stroke="black" points="538.89,-214.8 403.11,-214.8 403.11,-178.8 538.89,-178.8 538.89,-214.8"/>
<text text-anchor="middle" x="471" y="-192.6" font-family="Times,serif" font-size="14.00">VisitEditComponent </text>
</g>
<!-- VisitsModule&#45;&gt;VisitEditComponent  -->
<g id="edge7" class="edge">
<title>VisitsModule&#45;&gt;VisitEditComponent </title>
<path fill="none" stroke="black" stroke-dasharray="5,2" d="M471,-149.91C471,-149.91 471,-168.79 471,-168.79"/>
<polygon fill="black" stroke="black" points="467.5,-168.79 471,-178.79 474.5,-168.79 467.5,-168.79"/>
</g>
<!-- VisitListComponent  -->
<g id="node9" class="node">
<title>VisitListComponent </title>
<polygon fill="#fb8072" stroke="black" points="384.83,-214.8 251.17,-214.8 251.17,-178.8 384.83,-178.8 384.83,-214.8"/>
<text text-anchor="middle" x="318" y="-192.6" font-family="Times,serif" font-size="14.00">VisitListComponent </text>
</g>
<!-- VisitsModule&#45;&gt;VisitListComponent  -->
<g id="edge8" class="edge">
<title>VisitsModule&#45;&gt;VisitListComponent </title>
<path fill="none" stroke="black" stroke-dasharray="5,2" d="M424.87,-140.8C393.76,-140.8 358.38,-140.8 358.38,-140.8 358.38,-140.8 358.38,-168.77 358.38,-168.77"/>
<polygon fill="black" stroke="black" points="354.88,-168.77 358.38,-178.77 361.88,-168.77 354.88,-168.77"/>
</g>
<!-- PetsRoutingModule -->
<g id="node5" class="node">
<title>PetsRoutingModule</title>
<polygon fill="#8dd3c7" stroke="black" points="308,-84.8 305,-88.8 284,-88.8 281,-84.8 180,-84.8 180,-48.8 308,-48.8 308,-84.8"/>
<text text-anchor="middle" x="244" y="-62.6" font-family="Times,serif" font-size="14.00">PetsRoutingModule</text>
</g>
<!-- PetsRoutingModule&#45;&gt;VisitsModule -->
<g id="edge4" class="edge">
<title>PetsRoutingModule&#45;&gt;VisitsModule</title>
<path fill="none" stroke="black" d="M279.54,-84.83C279.54,-101.2 279.54,-122.8 279.54,-122.8 279.54,-122.8 414.65,-122.8 414.65,-122.8"/>
<polygon fill="black" stroke="black" points="414.65,-126.3 424.65,-122.8 414.65,-119.3 414.65,-126.3"/>
</g>
<!-- VisitsRoutingModule -->
<g id="node6" class="node">
<title>VisitsRoutingModule</title>
<polygon fill="#8dd3c7" stroke="black" points="161.84,-84.8 158.84,-88.8 137.84,-88.8 134.84,-84.8 24.16,-84.8 24.16,-48.8 161.84,-48.8 161.84,-84.8"/>
<text text-anchor="middle" x="93" y="-62.6" font-family="Times,serif" font-size="14.00">VisitsRoutingModule</text>
</g>
<!-- VisitsRoutingModule&#45;&gt;VisitsModule -->
<g id="edge5" class="edge">
<title>VisitsRoutingModule&#45;&gt;VisitsModule</title>
<path fill="none" stroke="black" d="M93,-84.91C93,-104.14 93,-131.8 93,-131.8 93,-131.8 414.65,-131.8 414.65,-131.8"/>
<polygon fill="black" stroke="black" points="414.65,-135.3 424.65,-131.8 414.65,-128.3 414.65,-135.3"/>
</g>
<!-- VisitService -->
<g id="node10" class="node">
<title>VisitService</title>
<ellipse fill="#fdb462" stroke="black" cx="845" cy="-66.8" rx="58.54" ry="18"/>
<text text-anchor="middle" x="845" y="-62.6" font-family="Times,serif" font-size="14.00">VisitService</text>
</g>
<!-- VisitService&#45;&gt;VisitsModule -->
<g id="edge9" class="edge">
<title>VisitService&#45;&gt;VisitsModule</title>
<path fill="none" stroke="black" d="M845,-84.91C845,-104.14 845,-131.8 845,-131.8 845,-131.8 527.23,-131.8 527.23,-131.8"/>
<polygon fill="black" stroke="black" points="527.23,-128.3 517.23,-131.8 527.23,-135.3 527.23,-128.3"/>
</g>
</g>
</svg>
