<?xml version="1.0" encoding="UTF-8" standalone="no"?>
<!DOCTYPE svg PUBLIC "-//W3C//DTD SVG 1.1//EN"
 "http://www.w3.org/Graphics/SVG/1.1/DTD/svg11.dtd">
<!-- Generated by graphviz version 2.47.3 (20210619.1520)
 -->
<!-- Title: dependencies Pages: 1 -->
<svg width="1121pt" height="174pt"
 viewBox="0.00 0.00 1121.00 173.80" xmlns="http://www.w3.org/2000/svg" xmlns:xlink="http://www.w3.org/1999/xlink">
<g id="graph0" class="graph" transform="scale(1 1) rotate(0) translate(4 169.8)">
<title>dependencies</title>
<polygon fill="white" stroke="transparent" points="-4,4 -4,-169.8 1117,-169.8 1117,4 -4,4"/>
<text text-anchor="middle" x="556.5" y="-8.2" font-family="sans-serif" font-size="14.00">dependencies</text>
<g id="clust1" class="cluster">
<title>cluster_OwnersModule</title>
<polygon fill="none" stroke="black" stroke-dasharray="1,5" points="8,-32.8 8,-157.8 1105,-157.8 1105,-32.8 8,-32.8"/>
</g>
<g id="clust2" class="cluster">
<title>cluster_OwnersModule_declarations</title>
<polygon fill="none" stroke="black" points="445,-40.8 445,-92.8 1097,-92.8 1097,-40.8 445,-40.8"/>
</g>
<g id="clust10" class="cluster">
<title>cluster_OwnersModule_providers</title>
<polygon fill="none" stroke="black" points="289,-40.8 289,-92.8 437,-92.8 437,-40.8 289,-40.8"/>
</g>
<g id="clust7" class="cluster">
<title>cluster_OwnersModule_imports</title>
<polygon fill="none" stroke="black" points="16,-40.8 16,-92.8 281,-92.8 281,-40.8 16,-40.8"/>
</g>
<!-- OwnerAddComponent -->
<g id="node1" class="node">
<title>OwnerAddComponent</title>
<polygon fill="#ffffb3" stroke="black" points="1088.53,-84.8 945.47,-84.8 945.47,-48.8 1088.53,-48.8 1088.53,-84.8"/>
<text text-anchor="middle" x="1017" y="-62.6" font-family="Times,serif" font-size="14.00">OwnerAddComponent</text>
</g>
<!-- OwnersModule -->
<g id="node5" class="node">
<title>OwnersModule</title>
<polygon fill="#8dd3c7" stroke="black" points="575.58,-149.8 572.58,-153.8 551.58,-153.8 548.58,-149.8 472.42,-149.8 472.42,-113.8 575.58,-113.8 575.58,-149.8"/>
<text text-anchor="middle" x="524" y="-127.6" font-family="Times,serif" font-size="14.00">OwnersModule</text>
</g>
<!-- OwnerAddComponent&#45;&gt;OwnersModule -->
<g id="edge1" class="edge">
<title>OwnerAddComponent&#45;&gt;OwnersModule</title>
<path fill="none" stroke="black" d="M1017,-85.09C1017,-107.01 1017,-140.8 1017,-140.8 1017,-140.8 585.83,-140.8 585.83,-140.8"/>
<polygon fill="black" stroke="black" points="585.83,-137.3 575.83,-140.8 585.83,-144.3 585.83,-137.3"/>
</g>
<!-- OwnerDetailComponent -->
<g id="node2" class="node">
<title>OwnerDetailComponent</title>
<polygon fill="#ffffb3" stroke="black" points="926.63,-84.8 773.37,-84.8 773.37,-48.8 926.63,-48.8 926.63,-84.8"/>
<text text-anchor="middle" x="850" y="-62.6" font-family="Times,serif" font-size="14.00">OwnerDetailComponent</text>
</g>
<!-- OwnerDetailComponent&#45;&gt;OwnersModule -->
<g id="edge2" class="edge">
<title>OwnerDetailComponent&#45;&gt;OwnersModule</title>
<path fill="none" stroke="black" d="M850,-84.91C850,-104.14 850,-131.8 850,-131.8 850,-131.8 585.66,-131.8 585.66,-131.8"/>
<polygon fill="black" stroke="black" points="585.66,-128.3 575.66,-131.8 585.66,-135.3 585.66,-128.3"/>
</g>
<!-- OwnerEditComponent -->
<g id="node3" class="node">
<title>OwnerEditComponent</title>
<polygon fill="#ffffb3" stroke="black" points="755.25,-84.8 612.75,-84.8 612.75,-48.8 755.25,-48.8 755.25,-84.8"/>
<text text-anchor="middle" x="684" y="-62.6" font-family="Times,serif" font-size="14.00">OwnerEditComponent</text>
</g>
<!-- OwnerEditComponent&#45;&gt;OwnersModule -->
<g id="edge3" class="edge">
<title>OwnerEditComponent&#45;&gt;OwnersModule</title>
<path fill="none" stroke="black" d="M684,-84.83C684,-101.2 684,-122.8 684,-122.8 684,-122.8 585.95,-122.8 585.95,-122.8"/>
<polygon fill="black" stroke="black" points="585.95,-119.3 575.95,-122.8 585.95,-126.3 585.95,-119.3"/>
</g>
<!-- OwnerListComponent -->
<g id="node4" class="node">
<title>OwnerListComponent</title>
<polygon fill="#ffffb3" stroke="black" points="594.7,-84.8 453.3,-84.8 453.3,-48.8 594.7,-48.8 594.7,-84.8"/>
<text text-anchor="middle" x="524" y="-62.6" font-family="Times,serif" font-size="14.00">OwnerListComponent</text>
</g>
<!-- OwnerListComponent&#45;&gt;OwnersModule -->
<g id="edge4" class="edge">
<title>OwnerListComponent&#45;&gt;OwnersModule</title>
<path fill="none" stroke="black" d="M524,-84.91C524,-84.91 524,-103.79 524,-103.79"/>
<polygon fill="black" stroke="black" points="520.5,-103.79 524,-113.79 527.5,-103.79 520.5,-103.79"/>
</g>
<!-- OwnersRoutingModule -->
<g id="node6" class="node">
<title>OwnersRoutingModule</title>
<polygon fill="#8dd3c7" stroke="black" points="273.2,-84.8 270.2,-88.8 249.2,-88.8 246.2,-84.8 124.8,-84.8 124.8,-48.8 273.2,-48.8 273.2,-84.8"/>
<text text-anchor="middle" x="199" y="-62.6" font-family="Times,serif" font-size="14.00">OwnersRoutingModule</text>
</g>
<!-- OwnersRoutingModule&#45;&gt;OwnersModule -->
<g id="edge5" class="edge">
<title>OwnersRoutingModule&#45;&gt;OwnersModule</title>
<path fill="none" stroke="black" d="M199,-84.91C199,-104.14 199,-131.8 199,-131.8 199,-131.8 462.14,-131.8 462.14,-131.8"/>
<polygon fill="black" stroke="black" points="462.14,-135.3 472.14,-131.8 462.14,-128.3 462.14,-135.3"/>
</g>
<!-- PetsModule -->
<g id="node7" class="node">
<title>PetsModule</title>
<polygon fill="#8dd3c7" stroke="black" points="106.38,-84.8 103.38,-88.8 82.38,-88.8 79.38,-84.8 23.62,-84.8 23.62,-48.8 106.38,-48.8 106.38,-84.8"/>
<text text-anchor="middle" x="65" y="-62.6" font-family="Times,serif" font-size="14.00">PetsModule</text>
</g>
<!-- PetsModule&#45;&gt;OwnersModule -->
<g id="edge6" class="edge">
<title>PetsModule&#45;&gt;OwnersModule</title>
<path fill="none" stroke="black" d="M65,-85.09C65,-107.01 65,-140.8 65,-140.8 65,-140.8 462.24,-140.8 462.24,-140.8"/>
<polygon fill="black" stroke="black" points="462.24,-144.3 472.24,-140.8 462.24,-137.3 462.24,-144.3"/>
</g>
<!-- OwnerService -->
<g id="node8" class="node">
<title>OwnerService</title>
<ellipse fill="#fdb462" stroke="black" cx="363" cy="-66.8" rx="66.03" ry="18"/>
<text text-anchor="middle" x="363" y="-62.6" font-family="Times,serif" font-size="14.00">OwnerService</text>
</g>
<!-- OwnerService&#45;&gt;OwnersModule -->
<g id="edge7" class="edge">
<title>OwnerService&#45;&gt;OwnersModule</title>
<path fill="none" stroke="black" d="M363,-84.83C363,-101.2 363,-122.8 363,-122.8 363,-122.8 462.17,-122.8 462.17,-122.8"/>
<polygon fill="black" stroke="black" points="462.17,-126.3 472.17,-122.8 462.17,-119.3 462.17,-126.3"/>
</g>
</g>
</svg>
